<?xml version="1.0" encoding="utf-8"?>
<!-- Generator: Adobe Illustrator 22.1.0, SVG Export Plug-In . SVG Version: 6.00 Build 0)  -->
<svg version="1.1" id="Good" xmlns="http://www.w3.org/2000/svg" xmlns:xlink="http://www.w3.org/1999/xlink" x="0px" y="0px"
	 viewBox="0 0 31.9 30.3" style="enable-background:new 0 0 31.9 30.3;" xml:space="preserve">
<style type="text/css">
	.st0{fill:none;stroke:#AAAAAA;stroke-width:2.5;stroke-linecap:round;stroke-linejoin:round;stroke-miterlimit:10;}
</style>
<path class="st0" d="M21.9,18.2c0.3,0.2,0.7,0.3,1.1,0.3c1.5,0.2,3.2,0.2,4.8,0.1c1.1-0.1,2.4-0.5,2.8-1.6c0.3-0.8,0.2-1.6,0.1-2.4
	c-0.2-1.9-0.4-3.9-0.7-5.8c-0.2-1.8-0.3-3.7-0.8-5.5C29,2.7,28.8,2.3,28.5,2c-0.5-0.4-1.2-0.5-1.9-0.5c-0.9,0-1.8,0-2.7,0
	c-0.8,0-1.8,0-2.3,0.8C21,3,21.1,4.1,21.1,4.9c0,1.3,0,2.6,0,3.9c0,2.6,0,5.3,0.1,7.9c0,0.3,0,0.6,0.1,0.9
	C21.4,17.9,21.6,18.1,21.9,18.2z"/>
<path class="st0" d="M21.3,17.3c-1.7,0.2-3.2,1.2-4.1,2.7c-1.2,1.8-1,3.7-1,5.8c0,3.1-2.8,4.2-5.1,2.3c-2.1-1.7-2.5-5-2-7.6
	c0.1-0.4,0.2-0.8,0.3-1.2c-1.7,0.1-3.7,0.3-5.4,0c-1.2-0.2-2.5-0.9-2.6-2.2c-0.1-1.2,0.5-2.4,1.2-3.5c0,0-0.4-1-0.5-1.1
	c-0.1-0.4-0.1-0.8,0-1.2c0.2-0.8,0.7-1.5,1.5-1.8c-0.3,0.1-0.8-1-0.9-1.2c-0.2-0.6,0-1.1,0.3-1.6c0.3-0.6,0.9-1.1,1.4-1.5
	c0,0-0.2-0.9-0.2-1c0-0.3,0.1-0.6,0.2-0.9c0.3-0.6,0.9-1,1.6-1.3c2.5-1,5.4-0.7,8-0.7c2.5,0.1,5.3-0.3,7.5,1.2"/>
</svg>
