<?xml version="1.0" encoding="utf-8"?>
<!-- Generator: Adobe Illustrator 22.1.0, SVG Export Plug-In . SVG Version: 6.00 Build 0)  -->
<svg version="1.1" xmlns="http://www.w3.org/2000/svg" xmlns:xlink="http://www.w3.org/1999/xlink" x="0px" y="0px"
	 viewBox="0 0 3840 2160" style="enable-background:new 0 0 3840 2160;" xml:space="preserve">
<style type="text/css">
	.st0{display:none;}
	.st1{display:inline;}
	.st2{fill:#AAAAAA;}
	.st3{fill:#AAAAAA;stroke:#FFFFFF;stroke-miterlimit:10;}
	.st4{fill:#AAAAAA;stroke:#FFFFFF;stroke-width:2;stroke-miterlimit:10;}
	.st5{fill:#AAAAAA;stroke:#FFFFFF;stroke-width:2;stroke-linecap:round;stroke-linejoin:round;stroke-miterlimit:10;}
	.st6{fill:#AAAAAA;stroke:#AAAAAA;stroke-width:30;stroke-miterlimit:10;}
</style>
<g id="圖層_5" class="st0">
	<rect x="14.3" y="108" class="st1" width="3811.4" height="1944"/>
</g>
<g id="畢業專題製作">
</g>
<g id="E">
</g>
<g id="N">
</g>
<g id="J">
	<g>
		<path class="st2" d="M1820.3,1422.1v44.1h-12.8v9.6h27.6v8.5h-27.6v10.6h17.5v8.5h-44.6v8.5h48.3v8.5h-48.3v19.1h-10.6v-19.1
			h-48.3v-8.5h48.3v-8.5h-44.6v-8.5h17.5v-10.6h-27.6v-8.5h27.6v-9.6h-6.4h-6.4v-44.1H1820.3z M1769.9,1430.6h-29.2v9.6h29.2V1430.6
			z M1740.7,1448.7v9h29.2v-9H1740.7z M1769.9,1466.2h-16.5v9.6h16.5V1466.2z M1753.4,1484.3v10.6h16.5v-10.6H1753.4z
			 M1809.7,1440.2v-9.6h-29.2v9.6H1809.7z M1809.7,1448.7h-29.2v9h29.2V1448.7z M1780.5,1466.2v9.6h16.5v-9.6H1780.5z
			 M1780.5,1484.3v10.6h16.5v-10.6H1780.5z"/>
		<path class="st2" d="M2105.6,1501.3h-46.8v-8.5h51.5v-8h-34.5v-8.5h34.5v-8.5H2070v-8.5h27.6l-5.8-10.1h-32.9v-8.5h25
			c-2.5-3.5-5.7-6.9-9.6-10.1l8-6.4c4.3,2.5,8.3,6.4,12.2,11.7l-5.8,4.8h11.2v-22.3h10.1c2.8,0.4,3,1.4,0.5,3.2v19.1h10.1v-22.3
			h10.1c2.8,0.4,3,1.4,0.5,3.2v19.1h12.8l-5.8-4.3c3.5-5,6.7-9.6,9.6-13.8l8,5.3c2.5,1.4,2.3,2.3-0.5,2.7c-1.8,3.2-4.3,6.6-7.4,10.1
			h25.5v8.5h-33.5l-5.8,10.1h29.2v8.5h-42v8.5h35.6v8.5H2121v8h52.6v8.5h-46.2c12.4,11,28,18.4,46.8,22.3l-4.3,11.2
			c-19.5-5-35.8-13.5-48.9-25.5v29.8h-10.6v-28.7c-12.4,11-28.2,19.1-47.3,24.4l-4.3-10.6
			C2078.7,1519.5,2094.3,1511.9,2105.6,1501.3z M2107.7,1459.3h16.5l5.3-10.1h-27.6L2107.7,1459.3z"/>
		<path class="st2" d="M2460.5,1420.5v7.4h48.9v8.5h-48.9v6.4h37.2v38.8h-8c6,3.2,12.4,7.8,19.1,13.8l-7.4,5.8l-8-6.9l-11.7,0.5v9.6
			h34.5v8.5h-34.5v18.6c0,5.7-2.7,8.5-8,8.5h-12.2l-2.7-10.1h10.1c1.4,0,2.1-0.7,2.1-2.1V1513h-39.3c4.6,3.2,8.8,7.3,12.8,12.2
			l-8.5,6.9c-4.3-5.3-8.7-9.7-13.3-13.3l6.9-5.8h-35.6v-8.5h77v-9l-64.8,2.1c-1.1,3.5-2.3,3.7-3.7,0.5l-3.2-9.6l50.5-0.5v-6.4h-18.6
			h-18.6v-38.8h37.2v-6.4h-49.9v-8.5h49.9v-10.6h10.1C2462.8,1417.7,2463,1418.7,2460.5,1420.5z M2423.3,1457.7h26.6v-6.4h-26.6
			V1457.7z M2423.3,1473.1h26.6v-6.9h-26.6V1473.1z M2460.5,1457.7h26.6v-6.4h-26.6V1457.7z M2460.5,1473.1h26.6v-6.9h-26.6V1473.1z
			 M2483.9,1486.9l-4.3-2.7l3.7-2.7h-22.8v6.4L2483.9,1486.9z"/>
		<path class="st2" d="M2753.2,1506.6c3.9,5,7.3,8.7,10.1,11.2V1480h-27.6v-10.1h59v10.1h-22.3v14.3h18.1v10.1h-18.1v18.6
			c5,3.2,10.6,4.8,17,4.8h66.9l-2.7,10.1h-64.3c-14.2,0-26.7-6.7-37.7-20.2c-2.8,9.6-5.8,16.6-9,21.3l-8.5-8
			c7.1-10.6,10.6-25.3,10.6-44.1l10.6,1.6c1.1,1.1,0.7,2.1-1.1,3.2C2753.9,1497,2753.6,1502,2753.2,1506.6z M2744.2,1463v-41.4h43.6
			v41.4H2744.2z M2778.7,1430.1h-25.5v8h25.5V1430.1z M2778.7,1446.5h-25.5v8h25.5V1446.5z M2788.3,1516.1
			c8.8-2.1,16.8-5.3,23.9-9.6H2801v-64.3h14.9l2.7-10.6h-22.3v-10.1h56.3v10.1h-22.3l-4.8,10.6h23.4v64.3h-13.3
			c4.6,2.8,11.3,5.7,20.2,8.5l-4.3,9.6c-8.9-2.5-16.5-6.2-22.8-11.2l5.8-6.9h-20.7l5.8,7.4c1.4,2.1,0.3,2.8-3.2,2.1
			c-6.7,3.5-14.7,6.6-23.9,9L2788.3,1516.1z M2839.8,1450.8h-29.8v10.1h29.8V1450.8z M2839.8,1469.4h-29.8v10.1h29.8V1469.4z
			 M2839.8,1488h-29.8v10.1h29.8V1488z"/>
		<path class="st2" d="M3127.2,1483.7l-2.1-8.5h4.3c1.4,0,2.1-0.7,2.1-2.1v-8h-13.8v20.2h-9v-20.2h-13.3v19.1h-9v-25.5h22.3v-6.4
			h-31.3v-6.4h31.3v-9h-14.3c-1.8,1.8-4.3,4.1-7.4,6.9l-6.9-5.8c6.7-5.3,12.6-11.3,17.5-18.1l7.4,4.3c1.4,1.4,0.9,2.3-1.6,2.7
			l-3.7,3.7h9v-12.8h8.5c2.8,0.4,3,1.4,0.5,3.2v9.6h23.4v6.4h-23.4v9h30.3v6.4h-30.3v6.4h22.8v18.1c0,3.2-1.1,5-3.2,5.3h4.8
			c2.8,0.4,3,1.4,0.5,3.2v5.8h50.5v8.5h-48.3c3.2,5.7,7.1,10.1,11.7,13.3l15.4-12.2l8,8c0.3,1.8-0.5,2.3-2.7,1.6l-13.8,8.5
			c6.4,4.6,17,8.3,31.9,11.2l-3.2,10.6c-27.3-5.7-46.2-19.3-56.8-40.9c-4.6,4.6-9.6,8.7-14.9,12.2v14.3l28.2-4.3l0.5,8l-47.8,9.6
			c-0.4,2.5-1.2,3-2.7,1.6l-4.3-11.7l17-2.1v-10.6c-8.5,4.6-19.7,8.9-33.5,12.8l-2.7-10.1c21.6-4.6,37.2-11.2,46.8-19.7h-44.1v-8.5
			h55.8v-7.4H3127.2z M3163.3,1428v45.2h-10.6v-48.3h10.1C3165.6,1425.1,3165.8,1426.2,3163.3,1428z M3168.1,1484.8l-1.6-10.1h6.4
			c1.4,0,2.1-0.7,2.1-2.1v-54.2h10.1c2.8,0.4,3,1.4,0.5,3.2v55.8c0,5-2.5,7.4-7.4,7.4H3168.1z"/>
		<path class="st2" d="M3414.1,1478.4c15.6-18.1,25.8-37.5,30.8-58.4l11.7,3.7c2.1,1.4,1.9,2.3-0.5,2.7c-2.5,8.2-6,17-10.6,26.6
			l3.2,1.1c1.4,1.4,0.9,2.3-1.6,2.7v81.8h-10.6v-69.1c-3.9,6.4-8.5,12.4-13.8,18.1L3414.1,1478.4z M3533.1,1441.2v10.1h-38.3v19.7
			h33.5v10.1h-33.5v17.5h35.6v10.1h-35.6v29.8h-10.6v-87.1h-5.3c-5.7,12-11.7,21.3-18.1,27.6l-10.1-7.4c14.2-14.9,23-32.4,26.6-52.6
			l11.2,3.2c2.1,1.1,1.9,2-0.5,2.7c-0.7,3.5-2.5,9-5.3,16.5H3533.1z"/>
	</g>
	<path class="st3" d="M3028.6,841.4l-11.1,16.9c0,0,20,9.9,43.7,4.2c0,0,17.8,7,37-3.5c0,0,19.2-10.2-5.2-5.9c0,0-23.9,6.3-26.6,0
		c0,0,18.5-20.5-4.9-9.4C3061.4,843.7,3073.6,851.9,3028.6,841.4z"/>
	<ellipse class="st3" cx="3122.7" cy="847.5" rx="6.8" ry="6.4"/>
	<path class="st3" d="M3124.6,870.3c0,0,69.8,42.3,136.5,20.9c0,0,8.5-2.5-6.4-3.4c0,0-36.5-0.8-47.5-7.3c0,0,10.6-6.3-25-4.2
		C3182.2,876.3,3192.2,889.1,3124.6,870.3z"/>
	<path class="st3" d="M3198.6,973.7c0,0,7.8-2,0-2.9c0,0-15.4-1.3-11,2.2C3187.6,973.1,3192.8,976.2,3198.6,973.7z"/>
	<path class="st4" d="M3560.3,970.8c-4,5.5-3-1.4-3-1.4c3.6-2.4,0-6.8,0-6.8c-4.3-2.9-16.9-26.9-16.9-26.9c-5.3-8.4-1.1-10-1.1-10
		c7.3-2.9-7.6-4.3-7.6-4.3c-11.1-8.3-25-4.8-25-4.8c-30.3,3.8-47.7-4.2-47.7-4.2c-11-5.8-8.1,0.2-8.1,0.2c1,4.5-1.4,1.2-1.4,1.2
		c-9.6-10.7-22.5-4.6-22.5-4.6l3.8,0.2c-0.5,7.4-7,1.9-7,1.9c-22.8-13.6-38.3-10-38.3-10l-19.8,0.2c-14.5-1.4-7,1.7-7,1.7l-11,0.7
		c-19.8,4.3-42,1.3-42,1.3c-0.5,5.1-30.8,4.2-30.8,4.2c-23-6.2-56,2.6-56,2.6c-20.8,8.1-79-14-79-14c-33-11.9-75.3-17.5-80.8-18.4
		c-5.4-0.9-6.5,1.9-6.5,1.9l-10.8,13c13.4-6.2,15,0.8,15,0.8c-3.2,4.9,16.9,1.4,16.9,1.4c4.4,7.1-18.3,4.7-18.3,4.7
		c-4.2-2.7-10.4-1.8-10.4-1.8c-7.2,1.7-5.9-1.6-5.9-1.6c-4,1.8-3.4,5.1-3.4,5.1c-1.2,1.5,0.4,2.3,0.4,2.3
		c18.4,9.1,63.9,11.7,63.9,11.7c-2.8,9.6-35.4,0.5-35.4,0.5c-8.8,3.1-31.2-7.3-31.2-7.3c-2.7-1.7-4.6,2.5-4.6,2.5l-5.3,10.9
		c1.8,3.1,3.8,5.1,3.8,5.1c4.3,7.5,37.3,10.5,37.3,10.5c18.5,0.8,22.6,9.8,22.6,9.8c0.9-8.3,13.3-5.4,13.3-5.4
		c22.2,6.2,41.2-2.4,41.2-2.4c19.9-5.1,29.8-1.9,29.8-1.9c-12.2,0.8-24.8,7.7-24.8,7.7c-25.8-5.7-35.4,4.3-35.4,4.3
		c-1.9-3.6-11.3-1.9-11.3-1.9c-6.5,0.5-0.6,5.1-0.6,5.1c2,2-1.4,1.7-1.4,1.7l-17,0.7c-37.3,3.4-4,8.7-4,8.7
		c28.3-0.4,27.8,5.1,27.8,5.1c14.8-0.8-8.4,18.7-8.4,18.7c-2.3,4-6.6,5.2-6.6,5.2l3.5,0.1c1.6,9.9-7.4,2.9-7.4,2.9
		c1.9-14.5-11.5-4.3-11.5-4.3c-6.6,3-2.8-3.7-2.8-3.7c4-6.9-3.5-2-3.5-2c-2.8,1.4-2.8,6.1-2.8,6.1c0.8,3.4-0.3,3.1-0.3,3.1l-4.3,3.6
		c-4.8,6.2,12.5,1,12.5,1c4-5.2,13.8,2.1,13.8,2.1c13.5,4.3,4.8,5.9,4.8,5.9c-0.8,1.4-22.8,1.2-22.8,1.2c-14.5-0.7-4.5,4.8-4.5,4.8
		c9.5,2.4,47,4.3,47,4.3c7.5,1.4,55.1,0.6,55.1,0.6c-1.8,2.4,0.6,4.4,0.6,4.4c16.3,13.6,44.9,2.6,44.9,2.6c2-3.8,6-2.2,6-2.2
		c9,4.4,31.6,2.9,31.6,2.9c8.5-0.2,2.5-3.6,2.5-3.6c-9.3-0.2-6.8-2.4-6.8-2.4c19.5-9.5,32.5,5.2,32.5,5.2c-21.8-3.8-17.5,1-17.5,1
		c35.5,5.9,47.5,9,47.5,9c25.8,16.9,67.5,13.1,67.5,13.1c38,1.2,28.5,10.2,28.5,10.2c13.8,14.3,46.8,10.9,46.8,10.9
		c22.3-2.1,29.8,5.7,29.8,5.7c9.3,4.5,29.5,3.9,29.5,3.9c7.4-0.9,4.3-7.8,4.3-7.8c-1.9-2.1,0.1-2.8,0.1-2.8c3.9-1.9,4-3.3,4-3.3
		c3.4-6.5-4.6-1.9-4.6-1.9c-9.6,6.5-5-5.7-5-5.7c23-7.6,20-15.3,20-15.3c4.9-0.7,3.8-4.6,3.8-4.6c3.5-2.1,1.5-8,1.5-8
		c-1.1,1.3-3.9-0.6-3.9-0.6c-4.1-2.7,5.4-9.2,5.4-9.2c4.4,0.2,7-5.1,7-5.1c-15.3-5.1,15.5-38.5,15.5-38.5
		C3563.3,973.9,3560.3,970.8,3560.3,970.8z M3233.3,924.5c11-0.2-9.8,4.5-9.8,4.5C3215.9,924.9,3233.3,924.5,3233.3,924.5z
		 M3185.1,931.6c0,0,4.3-3.8,10.8-0.6c0,0,14.8,1.9,18-2.6c0,0-2.8,11.7-16.4,4.6c0,0-2.8-1.6-4.4-1.2c0,0,5.8,6.9-7.9,4.5
		c0,0-8.8-2-11.1-4.8C3174.3,931.6,3181.5,934.8,3185.1,931.6z M3132.9,1004.7c-11.1,7.1-19.4,0-19.4,0c-4.3-3-1-2-1-2
		c6,1.2,23.1-1.2,23.1-1.2C3140.4,1000.2,3132.9,1004.7,3132.9,1004.7z M3211.3,1013.5c-18.7-4.6-35.5-0.5-35.5-0.5
		c-1.5-8.7,33.8-1.1,33.8-1.1c1.3-1.4,3.3-3,3.3-3c13.3-9.5,26.7,7.5,26.7,7.5C3231.8,1011.8,3211.3,1013.5,3211.3,1013.5z
		 M3252.7,966.6c0,0-7.4-1.9-10.1,1.1c0,0-31,14-24.8,4.3c0,0-2.7-4.3-10.2,2.8c0,0-4.3,7.4-38.3,2.7c0,0,21.8-0.5,5.5-7.3
		c0,0-14.7-5-22.1-0.4c0,0-8.1,5.3,4.3,6.5c0,0-12.5,3.8-11.6-4.3c0,0-2.6-5.7-7.1-7.8c0,0-5.7-5.9,7.1-5.4c0,0,13-0.3,22.4,4
		c0,0,13.3,5.9,25.5,0.3c0,0,9.1,5.9,27.2,2.3c0,0,13.3,1.2,24.4-3.6c0,0,3.7-2.8,7.8,0.9C3252.7,962.7,3256.7,966.6,3252.7,966.6z
		 M3307.7,1024.2c0,0-28.8-14.1-38.8-8.6c0,0,7.3-17.8,24.5-8.4c0,0,49,27.9,61.3,3.5C3354.7,1010.7,3349.2,1044.3,3307.7,1024.2z
		 M3437.8,942.3c0,0-9-2.4-14.3,0.7c0,0-5.9-5.2-10.6-4c0,0-1.8-5.7-5-0.2c0,0-3.1,6.5-6,1.4c0,0-6.5-3.2-8.5,1.5
		c0,0-9.9,3.4-10.9-2c0,0-2,3.8,0.9,6.2c0,0-14.9,2.9-18.5,0c0,0-5.3-2.4-6.3,2.3c0,0-5.6,4.5-15.5,0c0,0-4.5-5.5-21.8-2.3
		c0,0,12.7-7.6,33.7-2.5c0,0,12,0.6,14.3-5.1c0,0,5.9,2.8,13.7,0c0,0,24.3-3.5,34.5-1.6c0,0,24.3,4.5,33-2.1
		C3450.5,934.5,3450.5,943.8,3437.8,942.3z M3470.7,937.4c0,0-5-0.5-7.4,2.7c0,0-1.2,1.6-1.6-0.5c0,0,2.2-7.6,9.7-3
		C3471.3,936.6,3473.5,937.8,3470.7,937.4z"/>
	<path class="st3" d="M3451.3,1275.9c0,0,10.3,1.7,18,0c0,0,21.3-8.8,102,30.2c0,0-35,1.2-47.5-4c0,0-12.8-4.9-19.4-2.5
		c0,0-12.9,4.2-21.6-2.7c0,0-21.8-8.6-31.5-6.2c0,0-2.5-5.2,9-4.7c0,0,27,2.9,30,0c0,0-9.5-4.5-18-3.6
		C3472.3,1282.3,3451.9,1280.8,3451.3,1275.9z"/>
	<path class="st3" d="M3378.9,1282.9c0,0-12.8-0.2-6.9,3.4c0,0,5.6,3.2,9.5,2.4c0,0,19.1,5.4,27.9,0.1c0,0,11.3-1.7,16.3,0.3
		c0,0,5.6-3.7-13.4-4.8C3412.3,1284.5,3403.1,1277.6,3378.9,1282.9z"/>
	<path class="st3" d="M3389.8,1270.5c0,0-16.5,7.4-21.3,2.3c0,0-4.4-2.6,3.3-2.3C3371.8,1270.5,3384.5,1270.2,3389.8,1270.5z"/>
	<path class="st3" d="M3404.3,1267.7c0,0-21.6,2.4,1.5,4.2l17.3,1c0,0,29.6,2.5,0.8-4C3423.8,1268.9,3408.3,1265.6,3404.3,1267.7z"
		/>
	<path class="st4" d="M3560,684.9c0,0,0.1,7.7-4.4,6.4c0,0-4.9-0.8,1.8-5.6c0,0,2.9-3.3-1.5-2.6l0.6-5.4c0,0-4-0.5-4.5,3.4
		c0,0-2.9,3.8-4.3-1.2c0,0-5.3-3.1-6.5,3.7c0,0-5.8,3.6-3.8-2c0,0,1.6-3-1.7-2.5l-5,0.5c0,0-1.2,1.2-0.7,4.5c0,0-2.3,1.1-2.4-2.5
		l-8,0.2c0,0-0.3,2.6,0.3,4.4l-120.1,2.6c0,0-6.8-0.4-13.4,2c0,0-4.9,3-4.8-0.1c0,0-0.8-4.6-6.1-0.7c0,0-1.7,1.2,0.2,3.3
		c0,0-4.7,4.1-5.8-0.3c0,0-2.8,2.1-0.5,4.7c2.3,2.5-40.4,1.3-40.4,1.3s-24.3-1.3-24.4-5.5c0,0-3.9,0.6-2.1,3.9l-30,1.5
		c0,0-31.8-2-28,4.4c0,0-4.3,2.5-6.3-2.3c0,0,1.6-3.6-1.3-2.3c0,0-7.8,1.7-3.1,6.3c0,0-0.8,1.2-1.8-0.8c0,0-14.9,1.8-13.8,4.5
		c0,0-3,2.1-5.2-1.1c0,0-4.5-1-9.5,2.4c0,0-6.8,4.6-7.7-2.9c0,0,1.5-8.9-19.5,2.9c0,0,4.7,1.6-0.9,2.1c0,0-2.9-2.1-4.3,0.5
		c0,0-23.5,42.3-15.5,99.4c0,0-8.8-0.2-4.5,5.9l8.5-0.9c0,0,8.3,5.1,6.8-1.4c0,0,18.3-3.3,28,4.6c0,0-0.3,6.7,32,3.2
		c0,0,20.7-4,37.3-0.6c0,0,11.8,1.9,21.3,11.1c0,0,5.2,5.9,12.7,5.9h13.3c0,0,1.5-5.7,6.3,0h34c0,0,3.5-4,5.7-3c0,0-1.3,5.4,2,4.3
		c0,0,8.3,0.5,8.7-4.1c0,0,0.8-5.8,2.1,0.2c0,0,4.8,2.2-1.1,6.2c0,0,10.9,2.5,12.6-8.8c0,0-0.1-4.7,7.6-3.7c0,0,6.5,1.6,7.8-1.7
		l53,0.3c0,0,9.3-1.1,12.3,6c0,0,1.8,6.3,6.6,2.6c0,0,2.6,2.5,0,3.6c0,0,1.1,5.2,4.3,3.6c0,0,0.9-0.3,0.5-1.6l-0.2-6.2
		c0,0,8.6-2,8.7-5.6c0.1-3.6,20.7,2.9,21.9,6.7c0,0,4,2.9,4.8-3.8c0,0,5.7-6.7,12.2-4.2l4.2,1.6c0,0,2.5,3.3,1.1-3.2
		c0,0,35-133.5,32.7-135.1C3559.3,693.7,3565,691.3,3560,684.9z M3422.1,815c-4.5,0-8.2-1.7-8.2-3.8s3.7-3.8,8.2-3.8
		s8.2,1.7,8.2,3.8S3426.6,815,3422.1,815z"/>
	<path class="st4" d="M3580.4,1208c0,0,3.2,0.7,2.6-1.9l0.1-7.6c0,0-27.6-8.4-35.8-7.5s14.3-24.4,14.3-24.4s6.4-5-1.3-6.4
		c0,0-0.1-5.8,9.5-0.7c0,0-0.1,2.3-4.1,1.7c0,0-2.4,5.7,4.5,5.4c0,0-1.9,6.4,10.4,0.5l1.8-1l-0.5-8.4c0,0-10.1,5-21.5-9.8
		c0,0,18,3,21.5-0.5l-0.1-7.7c0,0-23.8-5.7-43.8-4.2c0,0-33.2-0.5-41.5-2.4c0,0-7.3,1.4-9.5-4c0,0-25.2-18.1-50.7-0.6
		c0,0-2.8,4.3,20.3,1.7c0,0,19.2,0.2,25.3,1.7c0,0,1.5,7.6-29.2,1.1c0,0-7.2-4.9-9.5,2.2c0,0-1.3,7.8-20.8-0.6c0,0-5.5-6.8-30.7,0.3
		c0,0-7.7,0.2-14.2-2.4c0,0,1.3-1.9,4.5-1.4c0,0-16.7-3.2-23.5-0.3c0,0-12.7-3.5-10.3-8.2c0,0-26.8-14.7-89.2-3
		c0,0-20.3-4.1-14-10.8c0,0-12.8-12.4-65.3-6.3c0,0-22.5-0.5-24.5-3.8c0,0-18.7-2.9-21.5-1.3c0,0-2.2,1.8-1.4,5.7
		c0,0,3.3,1.2-3.3,5.5c0,0,2.8,5.5,7.8,0c0,0,9,4.8-3.9,10c0,0-13.6,8.3-12.9,12.8c0,0-1.3-5.2-2.8,3.6c0,0-1.5,9.3,4.3,5.2
		c0,0,3,7.6-9,10.2c0,0-4.3,1.2,0,4.8c0,0,6.3,4.3,1.3,11.2c0,0-9,14-13.8,17.8c0,0-15.5,10.9,0,8.6c0,0,4-1.4,0.5,2.6
		c0,0-3.8,1.4,2.3,3.8c0,0,19.2,11.7,13.7,16.7c0,0,13.8,2.4,4.5,11.2c0,0-5.8,6.2,8.8,5c0,0,18-1.4,14,4.8c0,0,0,1.9-4.3,2.4
		c0,0,8.5,3.6,16.3-1.7c0,0,13.2-3.8,18.3,0.6c0,0,33.8,7.6,40.5,5.2c0,0,6.2-1.6,10.3,3.5c0,0,2.7,4,6.7,0c0,0,6.5-5.4,19.3,1.8
		c0,0,43.7,18.7,61.8,14.4c0,0,5.8,5.4,22.2,6.5c0,0,3.2-0.6,1.4,2.1c0,0-1.3,10.9,23.4,4.4c0,0,5.7-4-5.2-3.4c0,0-24.8-0.8-6.7-6.2
		c0,0,4-0.6-0.8-3.3c0,0-6.2-4,7.2-4.3c0,0,7.7-0.2,10.2-2.5c0,0,32.8-1.9,41,1.9c0,0,18.6,5.5,25.4-1.5c0,0,5.3-6.4,22.4-3
		c0,0,53.6,8.7,88.1,24.4c0,0,6,1.1,7.8,3.9c0,0,1.1,3.6,5.1,1.4c0,0,3.5-3.7,17.3,1.4l8.8,3.2c0,0,2.8,1.7,2.6-1.4l0-36.5
		c0,0-4.6-2.9-15.1-0.2c0,0-2.5,1.1-7.3-0.2c0,0,7.4-0.1,6.9-2.7c0,0,5.8-4,14.5-1l0.2-25.8c0,0-12.8-6.3-12.6-0.3
		c0,0-1.9,3.3-7.7,3.3c0,0-34.3-6.4-38.3,0.4c0,0-23.6,5.4-30.5,5.2c0,0,19-8.3,18.6-10.6c0,0,29.5,6.3,34.6-2.7c0,0,10,6.1,13.6,0
		c0,0,9.4-1.3,0.1-2.4c0,0,8.3-0.1-1.5-3.1C3558.5,1210.1,3567.6,1206.5,3580.4,1208z M3135,1169.7c0,0,23.8-1.9,26.5,3.6
		C3161.5,1173.3,3133.5,1175,3135,1169.7z M3298.1,1158.5c2.5,0,4.6,2.4,4.6,5.5s-2.1,5.5-4.6,5.5c-2.5,0-4.6-2.4-4.6-5.5
		S3295.6,1158.5,3298.1,1158.5z M3315.5,1219.9c0,0-14.3-3-20.5,3.7c0,0,5.5,3.4-40.8,1.7c0,0-34.3-7.8-40.8-1.9c0,0,2.5-7.8,17.5-5
		c0,0,3.8,1.9,10,1.2c0,0,7,4.8,9,3.8c0,0,6.8,1.2,6.8-2.7c0,0,0.5-2,3.8,0c0,0,6.5,2.7,12,0c0,0,5.3-2.5,6.5,1.1c0,0,4.3-1.2,1.5-5
		c0,0,11.3-3.6,15.5-1.4c0,0,3.6,4.1,6.7-0.7c0,0,6.6-6.5,15.6-1.7c0,0,15.3,4.8,23-0.7C3341.3,1212.3,3340.5,1223.7,3315.5,1219.9z
		 M3359.7,1152.8c0,0-35.3-13.6-60-1.6c0,0,14.7-27.6,61-11.1c0,0,24.3,7.9,30.3,0C3391,1140.1,3402,1161.6,3359.7,1152.8z
		 M3434.3,1241.8c0,0-7-1.5-18,0.1c0,0,19.8-11.3,24-1.6C3440.3,1240.3,3442.8,1242.3,3434.3,1241.8z M3471.8,1238
		c-6.4-2.6-16.3,0.6-16.3,0.6c3-11.1,16-4.6,16-4.6c2.8,5.2,4.3,1.1,4.3,1.1c2.4-6.5,13.5,1.9,13.5,1.9
		C3481.1,1234.4,3471.8,1238,3471.8,1238z M3496.4,1204.2c-6.6-8.9-15.5-8.6-15.5-8.6c-3.3,1-49.9-1.7-49.9-1.7
		c-2.6,1.5-8.1,3.3-8.1,3.3c-7.4,1.7-4.9-2.9-4.9-2.9c8-1,11.8-5.6,11.8-5.6c13.3-0.1,14.5-4.4,14.5-4.4c3.6-3.3,3,2.1,3,2.1
		c-0.3,5.9,4.3,2.8,4.3,2.8c-1.3-6.2,8.2-8.8,8.2-8.8c3.2-1.7,17.3,0.6,17.3,0.6c9.8,5.1,12.7,2.1,12.7,2.1c4.5,4.1-10,5.2-10,5.2
		c28.7,8.7,27.3,0,27.3,0c3.3-0.5,9.6,12.7,9.6,12.7C3522.3,1211,3496.4,1204.2,3496.4,1204.2z M3515.7,1160.4c13.7-8.4,28,0,28,0
		C3542.5,1163.4,3515.7,1160.4,3515.7,1160.4z M3517.8,1148c12-6.2,26.8,0,26.8,0C3541,1150.8,3517.8,1148,3517.8,1148z"/>
	<path class="st4" d="M2365.9,1024.6c0,0,9.5-16.8,5.1,25.6c0,0,2.2,2.9-2,22c0,0-8.2,36.3,1.6,31.7c0,0-4.8,51.5,4.1,71.2
		c0,0,2.1,3.6-1.4,3.2c0,0-6.9,2.5,1.7,7.9c0,0,2.4,1,2.7,20.5c0,0-3.8,8.3,1.8,16.3c0,0-9.2,21.4,3.1,30.4l1.5,1.1l-4,0.6
		c0,0,6.8,25.7,75.6,23.1c0,0,7.1-2.6,3.1,1.5c0,0-9.2,6.8,4.3,1.5c0,0,10.7-7.4,0-7.6c0,0,3.4-2.4-2-2.8c0,0-2.6-0.7,1.3-2.1
		c0,0,3.9,2.3,5.5-4.7c0,0-1.7-1.3,2.4-18.3c0,0,6-30.4,2.4-40.6c0,0-2.4-3.9,3.6-3.1c0,0-1.5-12.8,1.5-26.9c0,0,1.5-3.6-4.1-1.9
		c0,0-5.3,2.1,1.2-2.4c0,0,7.8-3.1-1.5-3.9c0,0,4.1-1.6-1.2-2.8c0,0,13.3-13.6,1.7-12.8c0,0-5.8-6.2,6.1-2.3c0,0,2-2.4-2.7-4.4
		c0,0,10.9-42.9,7.8-57c0,0-0.2-1.4-1.6,0.7c0,0-4.3,5.6-6.4,1.5c0,0-2-3.6,4.2-6.4c0,0,10.7-3.2,0.4-10.9c0,0-2.4-2.9,1.5-4.1
		c0,0,5.4-4.6-2-14.1c0,0-3.9-5.8-1.4-8.7c0,0,3.2-6-5.3-6.2c0,0,3.3-0.5,3.6-1.3c0,0,1.5,0.2,2.1-5.7c0,0,2.2-10-3.5-6.4
		c0,0-4.1-3.7,4.8-5.1c0,0,2.8-0.5,1.4-3c0,0,0.5-10.2-5.9-8.3c0,0-3-5.8-2.7-18.9c0,0-0.3-21.4-8.3-20c0,0-6-5.1,2-1.8
		c0,0,2.4,5,5.9,1.2c0,0,1.1-0.9,0.6-3.5c0,0,5.6-48.7,3.6-60.7c0,0,11.7-0.1,4.4-2.8c0,0-1.8-1.7,4.4-4.3c0,0-9.5-2.3-9.7,1.5
		c0,0-5.1-3.2,0.4-5.6c0,0,1.8-0.9,5.1-0.9c0,0-1.9-2.7-7.6-2.3c0,0-3.1-6.4,2.2-9.9c0,0,3.5-17.7-1.7-16.6c0,0,0.9-3.4,5.7,0
		c0,0,1.1,1.3,0.5-1.5c0,0-2-8.4-7.1-7.5l0.9-11.5c0,0,0.9-6.5-0.4-6.6l-109.4-41.9c0,0,5,11.2-4.2,5.3c0,0-9.2-1.7-4.6,4.9
		c0,0,8.9,5.1,0.8,5.8c0,0-3.5-0.5-0.1,3.1c0,0,6.9,7.1,2.6,7.7c0,0-7,1.5-3.3,5.1c0,0-4.3,2.7,4.1,4.5c0,0,3.5,4.8-3.4,8.8
		c0,0,4.4-0.1,5,7.4c0,0-1.3,62.8,3.5,66.7c0,0-5.1,56-0.3,60.5c0,0-7.1,23.6,2.4,26.9l-4.8,9.5c0,0-3.3,5.6,1.9,3l4.2-2.8
		C2369.5,1012.4,2363,1025.2,2365.9,1024.6z"/>
	<path class="st3" d="M2570.6,733.1c0,0,19.9,21.3,25.3,39.8c0,0,7.5,14.6,17.4,11.4c0,0-4.7-5-3.3-8.4c0,0-6.9-19.5-15.2-20.9
		c0,0,13.2,2.1,2.8-3.3c0,0-23.7-37-26.4-22.7C2571.2,729,2578.6,732.6,2570.6,733.1z"/>
	<path class="st3" d="M2615.8,804.9c0,0-10.2-14.1-5.1,2.2c0,0,8.7,17,7.7,22.6c0,0,14,52.9,38,70.7c0,0,0,7,14.3,18.5
		c0,0,8.2,5.8,0-4.9c0,0-14.5-20.9-14.5-25.7c0,0,14.3,18.9,21.2,24.8l3.4,2.8l-3.7-7.8c0,0-26.3-48.2-30.9-54.4
		c0,0-23.1-37.7-28.4-42.1C2617.7,811.5,2608.4,802.2,2615.8,804.9z"/>
	<path class="st3" d="M2699.3,933.8c0,0-7.9-10,0,9.5c0,0,20.2,34.2,33.9,40.6c0,0-8.7-13.6-9.2-15.3c0,0-20-30.8-24.3-33
		C2699.8,935.5,2696.6,933.3,2699.3,933.8z"/>
	<path class="st3" d="M2710.9,972.9c0,0,4.3,6.2-3.2,2.2C2707.7,975,2673.6,925.3,2710.9,972.9z"/>
	
		<ellipse transform="matrix(0.7133 -0.7009 0.7009 0.7133 89.4479 2186.3789)" class="st3" cx="2716.9" cy="983.9" rx="1.6" ry="3"/>
	<path class="st3" d="M2957.8,748.1c0,0-29.8,120-12.8,135.4c0,0-2-19.9,3.8-50.4c0,0-1.1,53.4,3.7,54.8c0,0,2-21.1,1.5-24.5
		c0,0,2.8-7.6,3.8-26.5c0,0,4.2-7.1,1.5-25.1c0,0,4.6,12.6,4.3-58.3c0,0-0.3-20.9,5.1-23C2968.7,730.5,2962.3,716.2,2957.8,748.1z"
		/>
	<path class="st3" d="M2950.9,894.9c0,0-5.6,16.3-4.3,30.6c0,0-6.6,8.4-4.1-30.6c0,0-9.5,21.6-3.7,40.3c0,0,0.1-10.1,1.2-9.8
		c0,0-0.9,6.8,1.2,9.8c0,0,0-7.4,0.5-5.4c0,0,2.9-3.9,1.5,14.9c0,0-0.3,11.7,2,16c0,0,3.4,10.7,4.4-7.6
		C2949.6,953.1,2953.7,919.6,2950.9,894.9z"/>
	<path class="st3" d="M2935.2,954.7c0,0-1.2-31.7,3.6,0C2938.7,954.7,2935.7,973.5,2935.2,954.7z"/>
	<path class="st3" d="M2823.1,700.1c0,0,17.3-7.7-2.4-23.4c0,0-4.6-4-4.8,3C2815.9,679.7,2812.9,702.4,2823.1,700.1z"/>
	<ellipse class="st3" cx="2827.7" cy="711.9" rx="4.9" ry="4.7"/>
	<g>
		<path class="st5" d="M2830.6,924.1c0-0.5,0.1-0.8,0.1-0.8C2830.7,923.5,2830.6,923.7,2830.6,924.1z"/>
		<path class="st5" d="M2546.1,765.5C2546,765.5,2546,765.5,2546.1,765.5C2546,765.5,2546.1,765.5,2546.1,765.5z"/>
		<path class="st5" d="M2949.1,678.4l-21.6,0.2c0,0-2.6-0.6-1.4,4.2c0,0-1.5,14.4,1.2,18.3c0,0-1,3.2-4.3-1c0,0-3.4-6.3-1.4-16.7
			c0,0,1.4-3.9-1.5-3.6c0,0-12.9,1.1-15.1,0.8c0,0-5.1-1.1-3.6,3.4c0,0-2.6,18.5,2.9,17.8c0,0-2.4,2.6,1.7,7.8
			c0,0-3.4,13.4-1.7,27.5c0,0-10.1-5.8-4.4-15.7c0,0,2.2-17.8-6.1-11.5c0,0,1.7-6.5-0.9-12.8c0,0,2.6-11.3-0.9-15.1l-7-0.2
			c0,0-2.7,10.8-0.3,15.7c0,0-2.4,7.6-4.6,29.1c0,0-0.3,3.9-4.8-0.6c0,0-15.1-11.5-14-18.8c0,0-6.3-3.7-5.3,5.7
			c0,0-7.3-13.3,5.1-10.5c0,0,4.6,0.5,1.5-5.2c0,0,3.4-8.6-1.5-13.6c0,0-2.6-1.5-6.3-0.5l-2.8,0.2l-0.3,20.1c0,0-4.4,2.7-3.3-19.7
			l-15-0.5c0,0,6.6,2.1,4.2,8.5c-2.4,6.4-2.4,6.4-2.4,6.4l3.3,8.4c0,0-6.7,66.9-1.9,84.3c0,0-14,6.8-0.7,10.7
			c0,0-20.4,26.5-4.4,65.1c0,0-8.2,44.4-0.3,54.1c0,0-1-18.8,3.7-15.2c0,0,2.7,1,1,12.3c0,0-2,25.6-1,33.6
			c-1.1-5.6-4.4-22.9-4.5-27.3c-0.3,4.2-1.7,24.5-1.1,32.2c0,0-3.4,46.5-6.3,53.8c0,0-7.1,52.9,3.1,70.9c0,0,0.6,23.6-2.8,34.3
			c0,0-9.9,0-5.1,8.7c0,0,0.7,27.5-10.2-1.3l-7.1-9.1c0,0,4.8-0.3-13.3-16.5c0,0,5.8-3.2-7.5-17.8c0,0-14.3-17.8-8.8-15.2
			c0,0,8.2,9.7-8.2-17.2c0,0-1-5.2-17.7-32.4c0,0-3-3.7-3.1-5.8c0,0,7.6,0.3-11.5-20.8c0,0-2.7-2.9,2.2,5.3c0,0,10.1,27.4-28.2-13.7
			c0,0-19.6-20.4-25.1-36.9c0,0-2-9.1-16.7-18.5c0,0-32-35.9-40.5-65.4c0,0-7.5-12.3-7.8-25.6c0,0-7.8-22.7-16.3-31.4
			c0,0-4.8-6.8-8.8-16.8c0,0-13.3-29.1-22.1-35.8c0,0-1.4-3.6-13.4-3.1c0,0-4.8-0.6,0.7,4.5l4.9,7.1c0,0-6,1,7,12.8
			c0,0-1.9-0.2,4.4,8.3c0,0-17.7-14.6-16-19.9c0,0-6.5-6.5-6.5-13.8c0,0-10.4-4-7.9,1.5c0,0,14.8,38.3,33,61.9
			c-6.7-8.3-21.5-27.2-25.3-35.8c0,0-4.5-5.7-2.6-7.4c-0.3,0.1-2.1-1.2-10.1-22.4c0,0-11.1-2.1-10.7,0l2.7,1.5c0,0-11.9-0.5-7.8,3.5
			c0,0-8.8-0.6,19.2,41.1c0,0,16.3,30.9,12.3,27.8l-1.1-0.9c0,0-3.4,2.2,9.4,7c0,0,17.2,22.7,18.6,24.3c0,0-12.8-8.1-13.8-11
			c0,0-5.4-11.5-11.2-5c0,0-54.4-65.9-7,4.7c0,0,15.5,18.5,3.7,17.2c0,0-31.8-12.1-20.9,0.2c0,0-11.1-8.4-0.2-9.2
			c0,0-3.9-12.6-14.1-15.4c0,0-1.6-2.8,7.1-1.2c0,0-7.1-8.4-11.2-3.1c0,0-0.3,1.5-2.5-0.4c0,0-1.8-2.5-7.5-0.1c0,0,4.9-0.6,4.1,2.8
			c0,0-0.2,2.3,3.6,3.7c0,0,10.8,7.2,13.1,21.1c0,0-1.5-0.5-5.5-5.9c0,0-24.9-29.8-15.9-9.2c0,0,26.9,41.5,41,56.1
			c0,0,12.3,21.4,24.6,27c0,0-15.1,0.8,0.5,7.3c0,0,0.1,21.2,33.9,46.6c0,0,7.1,16.4,19,26.3l10,10.4c0,0,3.3,2.9,4.8,9.3
			c0,0,1.9,0.1,8.7,9c0,0,15.1,20,18.5,28.8c0,0,20,41.2,35.3,51.2c0,0,12.3,18.8,19.8,20.9c0,0,14.9,15.1,8.4,16.9
			c0,0,0.1,1.3,6,1.9c0,0,0.5,2.5-1.3,3.5c0,0-6.5-3.3-0.3,3.3c0,0,2.6,1.8,2.4,4c0,0,3.3,11.4,20.7,26.7c0,0,32.2,35.9,28.6,37.4
			c0,0,14.5,18.9,23.7,28.4c0,0,4.6,3.6,2.2,4.6c0,0-6.4,1.5,7.5,3.5c0,0,7.9,1.6,1.9,4.9c0,0-2.9,0.1,0.3,1.3c0,0,11.1,1.6,2.7-8.5
			c0,0-4.1-3.9,0.3-6.8c0,0,4.2-0.7,4,5.7c0,0,6,1.8,2.6,10.3c0,0,1.3,7.5,7.1,7.4c0,0,0.6,6.8,6.5,6.8c0,0,2.9,0,0.9-7
			c0,0,7.8-2.8,7.1,10c0,0-0.3,4.2-1.3,5.6c0,0-0.6,1.7,2.9,1.4c0,0,7.9-1.8,5.5-7.9c0,0,6-5.5,13.7,10.3c0,0,11,20.4,12,9.2
			c0,0,7.7,2.4,4.8-5.8c0,0,10.7-16,19.4-24c0,0,3.4-1.2,4.8-0.5c0,0,3.8,2.9,1-3.3c0,0-0.8-4.5,1-7.2c0,0,6.4-3.2,4.6-36.7
			c0,0,4.5-37.6,0.3-46.1c0,0,6.6-12.1,3.5-25.3l3.7,9c0,0,2-24.8-2.7-38.2c0,0-2.7,0,3.2-8.7c0,0,6.9-29.5,8.6-56
			c0,0,6.1-30.1,5.4-37.6c0,0,1.5-17.2,0.1-22c0,0,17,1,6.4-32.7c0,0-2.4-4.9-3.1,3.2c0,0,2,14.6-0.7,19.7c0,0-16-14.2-10.5-48.2
			c0,0-3.1-13.3,1.7-46.3c0,0,4.1-7.1-1.7-24.9c0,0-4.4-43.7,9.9-97.1c0,0,3.4-10.7,4.1-27.5c0,0,0-10.5,5.1-16.3
			c0,0,5.1-3.8,0-12.2c0,0-0.6-13,2.3-29.1l0.8-6.3C2952.5,682.3,2954.1,676.1,2949.1,678.4z M2531.1,864c0,0,15.5,20.7,23,26.4
			C2554.1,890.4,2539.6,887.3,2531.1,864z M2539.1,859c-0.1-0.2-0.1-0.5-0.2-0.7c0-0.1,0-0.1,0-0.1c0,0,0,0.1,0,0.1
			C2538.9,858.4,2539,858.6,2539.1,859c2.3,7.2,22.1,23.7,22.1,23.7C2545.4,879.3,2540.1,862.7,2539.1,859z M2624.8,896.6l-0.4-0.5
			C2624.5,896.1,2624.6,896.3,2624.8,896.6l3,4c-0.2,3.5,4.5,6.7,4.5,6.7c2.6,1.6,3.5,4.9,3.5,4.9l8,7.9c-6-0.2-13-9.5-13-9.5
			c0.2-6.8-4.8-7.9-4.8-7.9c1.9-1.3-2.2-3.5-4-4.3c-0.3-0.1-0.5-0.2-0.8-0.4c0,0,0.3,0.2,0.8,0.4
			C2627.3,900.7,2625.7,897.8,2624.8,896.6z M2602.3,842.9c2.2,1.7,3,8.6,3,8.6c0.7,5.2-2.2,2.9-2.2,2.9c-8.8-5.4-5.2-12.4-5.2-12.4
			C2595.4,831.5,2602.3,842.9,2602.3,842.9z M2608.2,878.5c0,0,2.3,4.9,8,8.7l-4.3-1.7c0,0-3.4-1.1-6.8-6.7s-5.8-7.4-17.6-22.2
			C2587.6,856.6,2602.1,868,2608.2,878.5z M2634.3,1004.7c0,0-4,2.5-4.3-6.3c0,0-1.8-3.4-6-6.6l-1.8-1.5c0,0,4.3-0.9,6.8,1.5
			C2629,991.8,2636,996.6,2634.3,1004.7z M2630,951.7l-16.3-13.7c8-1.7-9-10.7-9-10.7c4-1.7-7.5-13.3-7.5-13.3c-5-2.9-7-5-7-5
			c-9-12.1,7,1.9,7,1.9c-6-11.7-17.5-21.4-17.5-21.4c-5.8-6-4.3-6.7-4.3-6.7c4.8-0.5-2.8-13.8-2.8-13.8c-1.3-6.5,14,12.9,14,12.9
			c0.1,5.1,2,8.8,2,8.8l-0.3-6.2c4.5,21.9,15.5,25.9,15.5,25.9c15.5,25.7,15,18.6,17,24.8c2,6.2,16.7,20.5,16.7,20.5
			C2657.7,969.9,2630,951.7,2630,951.7z M2658.8,1042.1c0,0-13.1-27.4-20.7-28.8c0,0,6.3-3.2,9.7,2.4s5.6,9.5,5.6,9.5
			s10.8,25.5,21.2,25.5C2674.5,1050.7,2670.7,1056.4,2658.8,1042.1z M2851.5,727.6c0,0-6.4,15.4-5,23.2
			C2846.5,750.8,2836.8,748.1,2851.5,727.6z M2836.5,895.3c1.8-14.6,2.5-36.6,2.5-36.6c0.3-2.1,0.7,0.2,0.7,0.2
			c0.3,13.6,4.1,17.2,4.1,17.2c-3.2,4.2-3.7,13.9-3.7,13.9C2836,903.3,2836.5,895.3,2836.5,895.3z M2852.5,955.7
			c-12.6,25.6-9.7,61.5-9.7,61.5c0.5,20.7,8.8,20.4,8.8,20.4c-8.3,7.1-13.4-15.5-13.4-15.5c-1.2-4-1.2-19.6-1.2-19.6l0-15.1
			c-0.5-19.1,6.1-23.9,6.1-23.9c-3.6-3.2-1.3-6.6-1.3-6.6c6-11.7,0-24.9,0-24.9c-0.5-1.6-1.2-2.4-1.2-2.4l-1.1-0.2
			C2855.7,923.7,2852.5,955.7,2852.5,955.7z M2860.3,732.9c0,0-5.4,23.6,0,33c0,0-4-1.7-5.4-9.5c0,0-1.8,4.1,0,6.8
			c0,0-6.4,4.5,1-23.1l1.8-6.6c0,0,1.1-3.4,3.7-5.8C2861.4,727.7,2860,731.2,2860.3,732.9z M2887.5,801.6c-4.9-4.7-4.3,7.8-4.3,7.8
			c3.7,8.4-0.7,13-0.7,13c4.1,8.7,1,19.9,1,19.9c-3.6,13.4,1.4,47.6,1.4,47.6c2.2,13-1.5,4.5-1.5,4.5c-4.6-4.4-9.3-35.8-9.3-35.8
			c12.9,5.5,2.8-6.2,2.8-6.2c-4.1-6.2-0.7-14.5-0.7-14.5c-4.8-10.3,0-30.5,0-30.5c3.7,31.7,5.4-3.2,5.4-3.2c4.8-4.5-2-24-2-24
			c7.8-5.5,7.8-11.7,7.8-11.7C2893.8,772.9,2887.5,801.6,2887.5,801.6z M2905,757.4c4.6-0.6,4.1,21.4,4.1,21.4
			c2.6,12.5,0.9,18.6,0.9,18.6C2899.6,788.4,2905,757.4,2905,757.4z M2909.3,1101.6c0,0-8.2,49.3-1.5,57.1c0,0-10.5-3.2-2.8-45.4
			c0,0,7.9-11.4-2.3-12.4c0,0,0-22.6,2.3-27.4c0,0,5.7-6.1-3.4-2.3c0,0,1.1-46-3.6-35.3c0,0,9-32.7,2.7-49.1c0,0,8.7,10,4.6,37.9
			c0,0-3.6,9.2,2.3,22.6c0,0-3.6,6.3,1.8,21.4V1101.6z M2912.6,991.2c-1.5-9.7-11-19.4-11-19.4
			C2916.7,981,2912.6,991.2,2912.6,991.2z M2912.4,837.7c3.6-1.6,1.9-4.7,1.9-4.7c-7.6-0.6,2.6-24.4,2.6-24.4
			c-2.3,10.4,0,48.9,0,48.9C2907.5,855.8,2912.4,837.7,2912.4,837.7z M2919.5,864.1c0,0-2.4,22,2,35.3
			C2921.5,899.4,2911.3,883.9,2919.5,864.1z M2926.8,752.8c-13.1,19.4-1.7-7.3-1.7-7.3C2934.6,740.5,2926.8,752.8,2926.8,752.8z
			 M2929.8,724.8c0.6-4.8-2-7.3-2-7.3c-4-4.5-4-9.2-4-9.2c3.5,2.3,4.8,0.5,4.8,0.5c-1.3,4,0.4,6.6,0.4,6.6
			C2932.3,718.1,2929.8,724.8,2929.8,724.8z"/>
	</g>
	<path class="st3" d="M2554.3,705.9c0,0,7.1-10.4-9.5-12.5c0,0-4-0.7-1.7,3.4C2543.1,696.9,2549.3,710.8,2554.3,705.9z"/>
	<path class="st3" d="M1614,1276.5c0,0,65.5-3.4,51.2,8c0,0-16.1,30.2-31.2,5.6L1614,1276.5z"/>
	<path class="st3" d="M1642.3,1238.9c0,0-12.8,18.2,11,9.8l81-26.9c0,0,50.8-25-43.9,5.6c0,0-6.1,3.5-5.2-0.9c0,0-0.2-9.6-27.3,7.9
		C1658,1234.4,1638.9,1248.7,1642.3,1238.9z"/>
	<path class="st3" d="M1816.6,1192.3c0,0,9-4.8,26.1-11.9c0,0,99.6-35.3,130.3-101.1c0,0,4.4-16.6-7.4,0.6c0,0-25.6,31.1-39.8,37.5
		c0,0,17.2-14.4,23.3-26.8c0,0,2.3-0.6,4.6-8.1c0,0,9-21.6,0.6-9.8c0,0,0.3,0.7-3.6,4.8c0,0-4.4,3.6-8.8,9.7
		c0,0-42.5,38.4-49.9,47.3c0,0-4.3,1-21.7,14.6c0,0-49.1,37.8-60.5,40.4C1809.7,1189.6,1775,1201.8,1816.6,1192.3z"/>
	<path class="st3" d="M2003,1021.8c0,0-1.8,8.9-8.5,17.1c0,0-11.3,13.7-11.3,18.2l-8.3,12.1C1974.9,1069.2,2010,1052.8,2003,1021.8z
		"/>
	<path class="st3" d="M1995.2,1008c0,0-21.8,25.5-18.3,28.8c0,0-6.5,7.6-7.8,16.4l-10.3,13.6c0,0,12.8-2.9,24.1-21.4
		c0,0,15.3-5.3,14-31.1c0,0,3.4-3.8,0.1-11.2L1995.2,1008z"/>
	<path class="st4" d="M2227.7,707.1l-12-1.3c0,0-7-1.7-3.3,6.7c0,0,1,3.8-1,3.8c0,0-2.8,1-7-0.8c0,0-2.2-0.2-2.8-3.2
		c0,0,0-3.8-5.7-6.7c0,0,4.3-4.3-4.2-8.7l-5.8-4.1c0,0-11-9.1-11.2,1.6c0,0-1.8,4.8-8-2.7c0,0-2.7-3-5.3-6c0,0-4.2-6.5-5.5-1.6
		c0,0,0.8,4.1-4,4c0,0-8.9,8.6-21-1.4c0,0-17.4-13-23.1-7.5c0,0,2.9,5.8-5,3.9c0,0-3.3-0.6-1.5,5c0,0,2.3,2.3-4.1,16
		c0,0-4.5,14.7-12.5,15.3c0,0-7-1.9-3,6.6c0,0,4.4,6.1,0.5,16.6c0,0,3,9.9-5.4,14.4c0,0-5,11.6-2.3,20c0,0,8.1,34.4-8.4,67.7
		c0,0-3.5,3.1,2,6c0,0,7.3,4.4-6.3,23.2c0,0-6.3,4.1-1.7,11.1c0,0,1.7,3-4.8,7.9c0,0-3.7,1.9,0,4.9c0,0-0.3,4.1-10.2,9.7
		c0,0,5.7-0.8-10,19.5c0,0-3,2.8-4.8,9.9c0,0-8.1,29-19.7,36.4c0,0-11.5,9.5-12.8,24.1c0,0-1.1,9.4,4.4,1.5c0,0,7.1-21.5,10.6-18.6
		c0,0,0.4,8.1-8.6,21.7c0,0,4.8-4.6,2,1.8c0,0-5.3,17.2-0.4,15.7c0,0,4.8,2.1,10.5-31.6c0,0,1.4-8.1,4.6,0.5c0,0,3.6,15.1-1,26.6
		c-4.6,11.4-25.1,52.6-38.5,62.6c0,0-8,5.1-5.3,18.1c0,0-26.3,55.5-125,92.3c0,0-48.6,28.8-142.1,59.8l-9.5,3c0,0-6.8,0.6-4.5,7
		l-0.5,13.2c0,0-1.4,7.5,31.9-10c0,0-4.3,13,37.9-13.5c0,0-19.9,19.4-36.2,20c0,0-1.5-1.7-5,0.2c0,0-14.4,7.5-26.2,7.9
		c0,0-2.7,13,8,7.5c0,0,84.4-14.1,138.8-59.8c0,0-12,32.3-141.6,66.7l-2.4,0.6l10.4,11.4c0,0,6.2,6.2,16.6,2.8
		c0,0,61.4-15.3,137.3-55.4c0,0,19.8-9.1,7.8-7.6l45.4-36.7c0,0-9.3,13.6-9.8,16.2c0,0-33.5,20.6-7.8,13.3l-40.1,34.8
		c0,0-8.9,10.3,5.7,4.8l67.5-43.7c0,0,10.2-8.6,15.9,0.2c0,0,9.7,6.2,6.8,19.9c0,0-22,4.4-32.1,24.8c0,0-3,4.6-3.3-2.7
		c0,0-0.8-6.5-5.7-2.7c0,0-4,2.4-1,9.1c0,0,1.3,4.8,8.4,1c0,0-2.5,17.5,9.5,6.2c0,0,11.4-18.6,17.4-18.3c0,0,14.5-10.2,31.2-17
		c0,0,9.2-0.5-16.5,14.9c0,0,8.2-1.1-19.4,19.9c0,0-6.7,8.7,6.3,4.3c0,0,79.8-57.1,66.5-53.2c0,0,48.8-42.8,63.6-68.2
		c0,0-0.7,8.1,5.3,2.5c0,0,2-1.9,4-4.9c0,0,2.2-4.9-5-2.9c0,0,3.2-6.5,6.8-3c0,0,38.6-20.8,41.1-63.3c0,0,34.1-40,13.5-34.2
		c-20.5,5.9,18-44.5,18-44.5l-9.5,25c0,0,21.2-27.7,32.2-65.3c0,0,21-21.8,24.7-116c0,0,1.3-14.8,10.4-11.6
		C2221.7,850.1,2229,772.6,2227.7,707.1z M1986.5,1100.9c0,0,4.3-0.3,6.5-11.8c0,0,1.4-7,10.9-14.1c0,0,0.6,4.4-4.6,11
		c0,0-3.6,3.8-0.8,7.8l-12.1,16.9C1986.5,1110.7,1977.9,1111.6,1986.5,1100.9z M1961.6,1134.7c10.2-9.2,13.1-14.8,13.1-14.8l1.6-1.7
		c9.7,1.4-10.6,18.4-10.6,18.4c-8,3.6-3.4,3.3-3.4,3.3c11.5-0.6-31.7,25.6-31.7,25.6C1948.2,1152,1961.6,1134.7,1961.6,1134.7z
		 M1837,1215.8c0,0,5.8-11.6,27.6-21.5C1864.5,1194.3,1850.4,1205.3,1837,1215.8z M1870.8,1206.3c0,0-16.2,8.7-2.7-4.3
		C1868.1,1202,1877.9,1199,1870.8,1206.3z M1895.4,1185.5c0,0-9.6,8.6-14.5,7.4c0,0-3.8-4,12.4-8.2c0,0,32.7-16.4,34.6-17.3
		C1929.7,1166.4,1895.4,1185.5,1895.4,1185.5z M1950.8,1169.6c0,0-5.9,19-29.9,31.1c0,0,12.9-16,28.7-34.6l11.6-11.4
		C1961.1,1154.7,1957.9,1160,1950.8,1169.6z M1968.6,1249l-7.5,6.2c-12.6,8.3-3-3.9-3-3.9c4.4-4.5,7.9-3.3,7.9-3.3
		C1973.8,1244.6,1968.6,1249,1968.6,1249z M1979.7,1235.8c0,0,27.6-19.1,31.1-29.8c0,0,9.5-17.4,1.5,2.5c0,0,4.9,0.1-5.9,11.4
		c0,0-12.4,13.2-23.5,17.2C1982.9,1237.1,1970.5,1242.6,1979.7,1235.8z M2027.4,1214.3c0,0-16.5,20.5-25.8,23.7
		c-9.3,3.2-12.7,3.1-3.3-0.7c0,0,12.2-9.5,26.3-26.5C2024.7,1210.9,2039.5,1190.3,2027.4,1214.3z M2059.4,1077.9
		c-6.6,6.4-4.8,17-4.8,17c0.9,10.7-3.3,13.2-3.3,13.2c0.6,4.2-6,2.6-6,2.6c-0.4-0.2-0.8-0.3-1.1-0.3c-4.9-0.6-2,11.2-2,11.2
		c1.5,1.5-8.2,8.5-8.2,8.5c-20.2,20.3-11.7,13.7-11.7,13.7c15.3-11.5,16.5-15.7,16.5-15.7c3.8,2.4-12.5,18.6-12.5,18.6
		c-9.5,8.1-18.8,19.1-18.8,19.1c1-1.9,6.8-11.1,6.8-11.1c11.8-16.8-1.8-2-1.8-2l-8,9.2c-17.8,9.5-21.8,23.6-21.8,23.6
		c-3-4.3-16.5,4.5-16.5,4.5c-18.8,11.2-3.8-7-3.8-7c10.8-10.5,16.3-12.9,16.3-12.9c28.1-16,27.7-22.7,27.7-22.7
		c48-53,43-61.3,43-61.3C2065.5,1060.1,2059.4,1077.9,2059.4,1077.9z M2142.1,711.8l4.6,23.6v25.4l-4.6-19.7
		C2137.3,718.4,2142.1,711.8,2142.1,711.8z M2087.6,955.3c0,0-6.6,13.8-5.3,23.8c0,0-9.2-1.2-1.1-29.8c0,0,4.4-3.6,3.3-41.6
		c0,0,2.3-1.2,3.9-6.9c0,0,0-0.1,0-0.1c1.5-5.5,2.4-14.9,0.1-31.2l-0.5-4.5c0,0,8.2-5.2,1.1-20.6l0.5-1.7c0,0,2.4-0.7,1.8-4.8
		c0,0,2.9,10,3.2-34.8c0,0,0.1-4.4,1.8,1.8c0,0,2.2,3.2-0.7,6.9c0,0-3.6,8.5,2.8,5.8c0,0,2.9,10.4-1.7,16.1c0,0,1.7,2.9-1,6.7
		c0,0-4.3,4.5-0.8,12.7c0,0,2.5,1.2-3.3,8.3c0,0-8.5,8.8,1.9,9.5c0,0,7.4,2.1-1.6,7.6c0,0-4.8,4.3,0.5,8.8c0,0,3.5,9.8-2.8,11.9
		c0,0-0.9,0.5-1.2,1.4c0,0,0,0.1,0,0.1c-0.2,0.7-0.1,1.6,1,2.6c0,0,3.3,3.1,0.3-1.6c0,0,6.3-4.4,4.6,3.7c0,0-2.9,4,0.2,11.8
		c0,0-8.4,10.4,0.4,16.1c0,0,2.9,2.3-3.4,11.2C2091.4,944.8,2092.3,948.1,2087.6,955.3z M2128.3,1095c-8.1,13.3-10.8,21.1-10.8,21.1
		c-20.3,21.3-26.9,35-26.9,35c-1.4,4.4-1.6-1.7-1.6-1.7c-1.3-9.8,26.4-35.8,26.4-35.8c7-3,2.4-8.2,2.4-8.2
		c-7-11.4,20.5-33.9,20.5-33.9C2156.1,1057.8,2128.3,1095,2128.3,1095z M2171.3,978.4c-20.2,26.9-28.2,60.6-28.2,60.6
		c-9.8-2-7.9-4.4-7.9-4.4c-10.5-2.9,0-18.6,0-18.6c3.8-14,16.5-30,16.5-30c31.1-40,7.5-58.2,7.5-58.2
		C2190,939,2171.3,978.4,2171.3,978.4z"/>
</g>
<g id="Logo">
	<polygon class="st6" points="843.9,1154.8 931.6,1272.9 958.3,1253.7 918,1198.8 1383.3,883.7 1327.1,805.8 	"/>
	<polygon class="st6" points="963.3,1335.4 1016.1,1447.8 1046.1,1433.7 1019.4,1376.2 1444.1,1180.7 1407.2,1087 	"/>
	<polygon class="st6" points="1035.7,1515.8 1054.9,1574.3 1401.6,1474.9 1375.2,1393.2 	"/>
	<path class="st6" d="M512.9,840.5c-1.5-0.8-21,23.8-22.3,25.4c-37.4,45.1-75.4,98.3-88.7,156.4c-9.6,42.1-0.2,84.9,33.3,113.8
		c35.3,30.5,87.6,33.7,131.5,25c47.7-9.4,91.8-32.9,131.8-59.8c20.7-13.9,40.5-29,59.8-44.7c6.3-5.1,12.5-10.3,18.7-15.6
		c35.5-30.1,70.9-60.1,106.4-90.2c45.5-38.5,91-77.1,136.5-115.6c37.3-31.6,74.6-63.2,111.9-94.8c11.7-9.9,23.4-19.9,35.1-29.8
		c0,0-81.2-63-81.2-63c-22.9,22.2-45.7,44.5-68.6,66.7c-79.1,77-156,156.2-235.1,233.1c-23.1,22.5-46.7,44.4-71.1,65.5
		c-11.3,9.8-22.9,19.2-34.6,28.5c-11.5,9.1-23.3,17.9-35.4,26.2c-32.4,22.5-70.9,43.4-111.6,40.6c-10.1-0.7-20.1-3.2-29.2-7.8
		c-22.9-11.7-35-34.6-34.4-60c0.5-23.8,10.5-46.6,23.2-66.8c23.3-37.2,51.4-70.6,82.5-101.5C571.3,872.2,512.9,840.5,512.9,840.5z"
		/>
</g>
</svg>
