<?xml version="1.0" encoding="utf-8"?>
<!-- Generator: Adobe Illustrator 22.1.0, SVG Export Plug-In . SVG Version: 6.00 Build 0)  -->
<svg version="1.1" xmlns="http://www.w3.org/2000/svg" xmlns:xlink="http://www.w3.org/1999/xlink" x="0px" y="0px"
	 viewBox="0 0 1318.1 340.3" style="enable-background:new 0 0 1318.1 340.3;" xml:space="preserve">
<style type="text/css">
	.st0{fill:#00DDDD;}
	.st1{fill:none;stroke:#00DDDD;stroke-width:16;stroke-miterlimit:10;}
	.st2{fill:#555555;}
	.st3{fill:#AAAAAA;}
</style>
<g id="Logo">
	<g>
		<path class="st0" d="M108.6,42.6c-36.5,0-66,29.6-66,66c0,36.5,29.6,66,66,66s66-29.6,66-66C174.7,72.1,145.1,42.6,108.6,42.6z
			 M108.6,135.8c-15,0-27.2-12.2-27.2-27.2c0-15,12.2-27.2,27.2-27.2c15,0,27.2,12.2,27.2,27.2C135.8,123.6,123.6,135.8,108.6,135.8
			z"/>
		<circle class="st1" cx="108.6" cy="108.6" r="100.6"/>
		<line class="st1" x1="48.2" y1="337.5" x2="48.2" y2="189.1"/>
		<path class="st1" d="M318.1,258.1c14-8.2,28-16.4,41.9-24.6c8.7-5.1,17.4-10.2,26.1-15.3c-14.5-23.3-41.7-38.4-69.2-36.5
			c-23.4,1.6-45.8,15.1-58.8,34.5c-5.5,8.2-9.4,17.5-11.1,27.2c-4.5,25.9,5.8,53.9,25.6,71.3c3.3,2.9,6.9,5.5,10.7,7.7
			c3.8,2.2,7.9,4,12,5.5c4.2,1.5,8.5,2.6,12.8,3.3c4.4,0.7,8.8,1.1,13.3,1.1c4.5,0,8.9-0.3,13.3-1c4.4-0.7,8.7-1.7,12.9-3.1
			c4.2-1.4,8.3-3.1,12.1-5.2c3.9-2.1,7.6-4.5,11-7.3c3.4-2.8,6.6-5.9,9.4-9.3c3.7-4.5,6.7-9.6,9.3-14.9"/>
		<polygon class="st0" points="164.7,216.3 214,337.2 226.3,337.2 174.2,210.5 		"/>
	</g>
</g>
<g id="圖層_2">
	<g>
		<path class="st2" d="M518.8,42.6h56v154.8H555v-10.3h-16.4v13.2h-19.8V42.6z M555,63.1h-16.4v20.7H555V63.1z M538.6,125.1H555
			v-20.7h-16.4V125.1z M538.6,166.6H555v-21h-16.4V166.6z M684.8,178.8l-12.4,22.3c-30.6-14.3-49.7-37.9-57.4-70.8h-8v46.3
			c8-2,16.1-4.2,24.4-6.8c-0.1,7.7-0.1,15.5,0.2,23.7c-21.8,5-35.4,9.3-40.7,12.9l-10.6-18.4c3.5-4.1,5.2-10,5.2-17.9V39.8h88.2
			v90.5h-4.8l13.3,15.8c-7.6,5.5-16.1,11-25.6,16.6C664.3,169.5,673.7,174.9,684.8,178.8z M652.1,61.4H607v13.9h45.1V61.4z
			 M652.1,109.1V94.8H607v14.3H652.1z M644.1,148c8.8-6,16.2-11.9,22.4-17.7h-30.7C638,136.8,640.7,142.7,644.1,148z"/>
		<path class="st2" d="M742.3,38.8h134.3v112h-0.9c9.2,3.5,16.2,6,21,7.5c-2.4,13.2-4.5,22.3-6.3,27.1
			c-3.1,10.9-11.4,16.4-24.9,16.4h-23.5c-17.6,0-26.4-9.3-26.4-28v-23h-19c-0.3,3.9-0.8,7.7-1.4,11.3c-3.8,21-23.7,35.6-59.5,43.8
			c-0.8-1.5-5.3-8.9-13.4-22.3c28.8-6.4,44.7-14.3,47.8-23.8c1.2-2.7,2-5.7,2.4-9h-30.4V38.8z M852.6,57.6h-86.3v13.9h86.3V57.6z
			 M766.3,101.8h86.3V87.8h-86.3V101.8z M852.6,132v-13.9h-86.3V132H852.6z M851.7,180h9.4c5.1,0,8.2-3.6,9.4-10.8
			c0.8-4.2,1.6-10.3,2.4-18.4h-33.1v16.5C839.9,175.8,843.8,180,851.7,180z"/>
		<path class="st2" d="M1038.8,157.9c4.2,8.3,7.9,16.6,11.1,24.9l-6.4,2.1c13.1-0.1,21.6-0.1,25.6,0c5.7,0,8.7-3.5,9-10.6
			c0.3-5.1,0.8-13.5,1.2-25.2h-98.8c-9.5,16.9-20.9,32-34.3,45.2c-4.4-8.3-8.9-16-13.6-23c22.7-24.1,38.8-53.1,48.2-87h-40.5V64.9
			H960c-3.9-6.3-8-12.3-12.2-18.1l16.2-11c5.1,6.1,11,13.8,17.7,23l-9.2,6.1h13c2.1-10.8,3.6-22,4.5-33.7l24.7,2.1
			c-1.2,10.9-2.7,21.5-4.5,31.7h77.9l-6.1,33.1h13.4l-3.8,32.4h12.2c-1,22.2-1.9,38-2.6,47.5c-0.9,17-8.8,25.6-23.7,25.7
			c-7.2,0.3-18.4,0.6-33.7,0.9c-0.6-3.6-2.1-9.7-4.7-18.3l-5.7,1.9c-2.7-7.5-5.7-16-9.2-25.4L1038.8,157.9z M961.4,193.3
			c5.2-10,9.9-20.6,13.9-32l17.6,5.9c-3.7,11.4-7.8,22.8-12.2,34.4L961.4,193.3z M990.1,130.3h77.6l2.1-13.6h-73.9
			C994,121.4,992.1,125.9,990.1,130.3z M1013.6,163.9c3.1,8.3,6.3,17.6,9.4,27.8l-17.4,4.9c-2.4-10.1-4.9-19.7-7.5-28.7
			L1013.6,163.9z M1060.4,84.4h-54.4c-1.2,4.6-2.4,9.2-3.7,13.6h55L1060.4,84.4z M1063.3,151.2c4.3,7.7,8.2,15.1,11.7,22.4
			l-15.7,6.6c-2.8-6.8-6.1-14.8-10.1-23.8L1063.3,151.2z"/>
		<path class="st2" d="M1212.9,69.8h-67.1V51.8h23c-1.7-6.1-3.8-12.1-6.1-17.9l24.9-1.9c1.7,7.4,3.2,14,4.3,19.8h21V69.8z
			 M1207.5,96.2h-56V79.5h56V96.2z M1207.5,122.8h-56v-16.9h56V122.8z M1152,200.9v-68h55.5v66.4h-18.8v-9.2h-18.1v10.8H1152z
			 M1188.7,150.6h-18.1v21.7h18.1V150.6z M1211.8,131.2h40.7v-67h-34.1V42.6h95v21.6h-37.6v67h42.3v21.6h-42.3v50.6h-23.3v-50.6
			h-40.7V131.2z M1235.1,74.3c0.9,2.7,5.5,16.3,13.7,40.9l-20.5,7.1c-3.5-12.3-7.9-26.1-13.4-41.4L1235.1,74.3z M1295.7,75l20.5,7.7
			c-5.6,14.3-11.5,27.8-17.9,40.7l-18.8-8.3C1286.1,100.4,1291.5,87,1295.7,75z"/>
		<path class="st3" d="M574.1,292.2c-1.4,0-2.7-0.5-3.9-1.6c-7.9-7.4-16.6-12.5-26.1-15.4c0.3,7.6,0.4,11.8,0.4,12.6
			c0,1.5-0.5,2.7-1.6,3.8c-1,1-2.3,1.5-3.9,1.5s-2.9-0.5-3.9-1.5c-1-1-1.6-2.3-1.6-3.8c0-2,0-4.9,0.1-8.8c0.1-3.9,0.1-6.8,0.1-8.8
			l0.1-31.6c0-1.7,0.5-3.2,1.5-4.6c1.3-1.8,3.2-2.6,5.5-2.4c6.3,0.5,9.6,0.7,9.7,0.7c3.7,0.4,6.8,1.3,9.3,2.6
			c11.1,5.6,16.7,12.6,16.7,20.9c0,3.4-1.2,6.4-3.5,9.1c-2.3,2.6-5.8,4.8-10.5,6.6c6.9,3.9,12.1,7.8,15.6,11.8
			c0.9,1,1.4,2.2,1.4,3.5c0,1.5-0.5,2.7-1.6,3.8S575.6,292.2,574.1,292.2z M549,242.9c-0.2,0-1.7-0.1-4.6-0.3v20.8
			c0.7,0,1.2,0,1.7,0c6.4,0,11.1-0.8,14.2-2.4c1.3-0.7,2.5-1.6,3.7-2.7c1.1-1.1,1.7-2,1.7-2.5c0-2.9-1.9-5.7-5.6-8.5
			C556.6,244.8,552.9,243.3,549,242.9z"/>
		<path class="st3" d="M685.2,293.5c-6.2,0-11.3-1.5-15.3-4.5c-4.4-3.3-6.6-7.9-6.6-13.9c0-6.6,1.7-12.2,5.2-16.8
			c3.9-5.1,9.1-7.6,15.6-7.6c4.5,0,8.3,0.7,11.3,2.2c3.9,1.9,5.9,4.9,5.9,9c0,2.9-1.6,5.4-4.8,7.6c-1.5,1-4.4,2.5-8.8,4.5l-13.2,5.8
			c1.3,1.4,2.8,2.4,4.5,3.1c1.8,0.7,3.8,1,6.1,1c3.5,0,6.5-0.7,8.9-2.2c2.2-1.3,3.9-1.9,5.2-1.9c2.7,0,4.1,1.3,4.1,4
			c0,3-2.2,5.4-6.5,7.3C693.2,292.7,689.3,293.5,685.2,293.5z M684.2,260.3c-2.4,0-4.5,0.8-6.2,2.4c-1.7,1.6-3.1,4-4.1,7.3
			c2.9-1.3,5.9-2.5,8.8-3.8c3.5-1.6,6.3-3.1,8.4-4.4C689.3,260.8,687,260.3,684.2,260.3z"/>
		<path class="st3" d="M806.6,294c-4.8,0-9-1.7-12.4-5c-3.8-3.6-5.8-8.5-6-14.5c-0.2-5.8,1.4-10.9,4.7-15.4c4-5.3,9.5-8,16.6-8
			c5.2,0,9.4,2.1,12.4,6.3c2.8,3.8,4.1,8.4,4.1,14c0,6.1-1.6,11.2-4.9,15.5C817.5,291.6,812.7,294,806.6,294z M808.9,261.4
			c-3.2,0-5.7,1.4-7.6,4.4c-1.6,2.5-2.3,5.4-2.3,8.7c0,3.1,0.9,5.5,2.7,7.2c1.4,1.3,3.1,2,4.9,2c2.3,0,4.2-0.8,5.9-2.3
			c1.9-1.8,2.9-4.2,3.1-7.3C815.9,265.7,813.7,261.5,808.9,261.4z"/>
		<path class="st3" d="M924.8,285.9c0,5-1.8,7.4-5.4,7.4c-1.6,0-2.9-0.5-3.9-1.5c-1-1-1.5-2.3-1.5-3.8v-54.1c0-1.5,0.5-2.8,1.6-3.7
			c1-0.9,2.3-1.3,3.9-1.3s2.8,0.5,3.8,1.4c1,0.9,1.5,2.1,1.5,3.7V285.9z"/>
		<path class="st3" d="M1030.9,294c-4.8,0-9-1.7-12.4-5c-3.8-3.6-5.8-8.5-6-14.5c-0.2-5.8,1.4-10.9,4.7-15.4c4-5.3,9.5-8,16.6-8
			c5.2,0,9.4,2.1,12.4,6.3c2.8,3.8,4.1,8.4,4.1,14c0,6.1-1.6,11.2-4.9,15.5C1041.9,291.6,1037,294,1030.9,294z M1033.3,261.4
			c-3.2,0-5.7,1.4-7.6,4.4c-1.6,2.5-2.3,5.4-2.3,8.7c0,3.1,0.9,5.5,2.7,7.2c1.4,1.3,3.1,2,4.9,2c2.3,0,4.2-0.8,5.9-2.3
			c1.9-1.8,2.9-4.2,3.1-7.3C1040.2,265.7,1038,261.5,1033.3,261.4z"/>
		<path class="st3" d="M1173.4,268.4c-1.1,6.1-1.7,12.6-2,19.4c-0.3,8.4-1.7,14.5-4.2,18.4c-3.4,5.1-9.5,7.6-18.2,7.6
			c-10.1,0-15.2-2-15.2-6c0-1.4,0.5-2.6,1.4-3.5c0.9-0.9,2.1-1.3,3.6-1.3c1.2,0,2.9,0.2,5,0.7c2.2,0.4,4.1,0.7,5.8,0.7
			c3.9,0,6.8-1.2,8.6-3.6c1.8-2.3,2.8-6,3.1-11.1c-1.3,1.4-2.8,2.4-4.5,3.1s-3.5,1-5.5,1c-5.2,0-9.4-1.7-12.7-5.1
			c-3.2-3.4-4.9-7.7-4.9-13c0-7.1,2.2-12.8,6.5-17.2c4.5-4.5,10.6-6.8,18.2-6.8c2.5,0,4.6,0.3,6.3,0.9c1.8,0.6,3.2,1.5,4.3,2.7
			c3.3,0.4,5,2.3,5,5.9C1174.2,262.9,1173.9,265.3,1173.4,268.4z M1158.2,260.5c-4.4,0-7.8,1.4-10.3,4.3c-2.2,2.6-3.3,6.1-3.3,10.3
			c0,3.1,0.6,5.4,1.8,7c1.2,1.6,2.9,2.3,5.3,2.3c2.1,0,4.3-1.2,6.5-3.7c2-2.3,3.2-4.7,3.5-7c0.5-2.5,1.1-6.4,1.7-11.7
			c-0.9-0.5-1.8-0.9-2.6-1.2C1159.8,260.7,1159,260.5,1158.2,260.5z"/>
		<path class="st3" d="M1298.7,258.6c-2.8,5.9-7.3,15.2-13.5,27.9c-3.3,6.8-5.9,12.5-7.6,16.9c-0.5,1.6-1.4,4-2.6,7.2
			c-0.9,2.5-2.6,3.7-5,3.7c-1.5,0-2.8-0.5-3.9-1.4c-1.1-1-1.7-2.2-1.7-3.6c0-2.4,2.8-9.6,8.3-21.6c-2.9-5.7-7.4-14-13.7-25
			c-0.6-1-1.3-2-1.9-3c-0.7-1.2-1.1-2.3-1.1-3.3c0-1.4,0.6-2.6,1.7-3.7c1.1-1.1,2.4-1.6,3.9-1.6c1.7,0,3.1,0.6,4,1.9
			c3.7,4.9,8,12.4,13,22.3c2.8-6.2,4.5-9.9,5.1-11.2c1.9-3.9,3.7-7.3,5.4-10.3c1.1-1.9,2.7-2.8,4.6-2.8c1.5,0,2.8,0.5,3.9,1.5
			c1.1,1,1.7,2.2,1.7,3.6C1299.3,256.9,1299.1,257.7,1298.7,258.6z"/>
	</g>
</g>
</svg>
