<?xml version="1.0" encoding="utf-8"?>
<!-- Generator: Adobe Illustrator 22.1.0, SVG Export Plug-In . SVG Version: 6.00 Build 0)  -->
<svg version="1.1" id="Account" xmlns="http://www.w3.org/2000/svg" xmlns:xlink="http://www.w3.org/1999/xlink" x="0px" y="0px"
	 viewBox="0 0 417 374.2" style="enable-background:new 0 0 417 374.2;" xml:space="preserve">
<style type="text/css">
	.st0{fill:none;stroke:#00DDDD;stroke-width:30;stroke-miterlimit:10;}
</style>
<path class="st0" d="M98.4,207.4c-28.6-25.4-31.4-71.6-19.2-105.7c15.4-43.2,50.5-75.1,95.9-84.2c13.2-2.6,26.8-3.3,40.2-1.8
	c6.1,0.7,12.2,1.8,18.1,3.3c56.5,14.8,97.9,69.5,94.5,128.3c-1.7,29.7-13.6,58.9-34.4,80.4c-6.1,6.3-12.8,12-20,17
	c-30.3,20.9-64.5,23.1-99.9,26.9c-17.4,1.9-34.9,4.9-51.8,9.5c-22.8,6.2-45.1,15.2-64.6,28.7c-2.7,1.9-5.4,3.8-7.9,5.8
	c-14.4,11.3-26.4,26-32.1,43.6c-1,3.1-1.9,6.3-2.5,9.6"/>
<path class="st0" d="M318.1,286c30.4,13.5,70,38.9,84.7,82.8"/>
</svg>
